<?xml version="1.0" encoding="utf-8"?>
<!-- Generator: Adobe Illustrator 16.0.0, SVG Export Plug-In . SVG Version: 6.00 Build 0)  -->
<!DOCTYPE svg PUBLIC "-//W3C//DTD SVG 1.1//EN" "http://www.w3.org/Graphics/SVG/1.1/DTD/svg11.dtd">
<svg version="1.1" xmlns="http://www.w3.org/2000/svg" xmlns:xlink="http://www.w3.org/1999/xlink" x="0px" y="0px" width="960px"
	 height="560px" viewBox="0 0 960 560" enable-background="new 0 0 960 560" xml:space="preserve">
<g id="Layer_1">
	<linearGradient id="SVGID_1_" gradientUnits="userSpaceOnUse" x1="476.9995" y1="78" x2="476.9995" y2="249">
		<stop  offset="0" style="stop-color:#595757"/>
		<stop  offset="1" style="stop-color:#C6C6C6"/>
	</linearGradient>
	<rect x="-7" y="78" fill="url(#SVGID_1_)" width="968" height="171"/>
	<linearGradient id="SVGID_2_" gradientUnits="userSpaceOnUse" x1="478.4995" y1="313" x2="478.4995" y2="484">
		<stop  offset="0" style="stop-color:#595757"/>
		<stop  offset="1" style="stop-color:#C6C6C6"/>
	</linearGradient>
	<rect x="-5" y="313" fill="url(#SVGID_2_)" width="967" height="171"/>
	<rect x="51.5" y="159.5" fill="#F4F4F4" stroke="#F4F4F4" stroke-miterlimit="10" width="107" height="8"/>
	<rect x="219" y="159" fill="#F4F4F4" width="107" height="8"/>
	<rect x="386" y="159" fill="#F4F4F4" width="107" height="8"/>
	<rect x="553" y="159" fill="#F4F4F4" width="107" height="8"/>
	<rect x="721" y="159" fill="#F4F4F4" width="107" height="8"/>
	<rect x="888" y="159" fill="#F4F4F4" width="107" height="8"/>
	<rect x="-45" y="399" fill="#F4F4F4" width="107" height="8"/>
	<rect x="122" y="399" fill="#F4F4F4" width="107" height="8"/>
	<rect x="289" y="399" fill="#F4F4F4" width="107" height="8"/>
	<rect x="456" y="399" fill="#F4F4F4" width="107" height="8"/>
	<rect x="624" y="399" fill="#F4F4F4" width="107" height="8"/>
	<rect x="791" y="399" fill="#F4F4F4" width="107" height="8"/>
	<rect fill="#F4F4F4" width="959" height="78"/>
	<linearGradient id="SVGID_3_" gradientUnits="userSpaceOnUse" x1="478.9995" y1="0.5" x2="478.9995" y2="78.5">
		<stop  offset="0.6946" style="stop-color:#2C9331"/>
		<stop  offset="1" style="stop-color:#98E29B"/>
	</linearGradient>
	<rect x="-3.5" y="0.5" fill="url(#SVGID_3_)" stroke="#67A82F" stroke-miterlimit="10" width="965" height="78"/>
	<linearGradient id="SVGID_4_" gradientUnits="userSpaceOnUse" x1="477.9995" y1="249.5" x2="477.9995" y2="313.5005">
		<stop  offset="0" style="stop-color:#98E29B"/>
		<stop  offset="0.5407" style="stop-color:#2C9331"/>
		<stop  offset="1" style="stop-color:#5BB55F"/>
	</linearGradient>
	<rect x="-7.5" y="249.5" fill="url(#SVGID_4_)" stroke="#67A82F" stroke-miterlimit="10" width="971" height="64"/>
	<linearGradient id="SVGID_5_" gradientUnits="userSpaceOnUse" x1="482" y1="484.5" x2="482" y2="560.5">
		<stop  offset="0" style="stop-color:#98E29B"/>
		<stop  offset="0.3873" style="stop-color:#2C9331"/>
	</linearGradient>
	<rect x="-0.5" y="484.5" fill="url(#SVGID_5_)" stroke="#67A82F" stroke-miterlimit="10" width="965" height="76"/>
	<g>
		<g>
			<path fill="none" stroke="#FFFFFF" stroke-miterlimit="10" d="M-70,82"/>
		</g>
	</g>
</g>
<g id="Layer_2">
	<polygon fill="#E00B0B" stroke="#FFDA00" stroke-miterlimit="10" points="170,529.5 159,529.5 141.77,444.92 126,469.25 
		116,405.125 153,348.062 164.5,409.031 149.75,432.496 	"/>
</g>
<g id="text">
	<g>
		<path fill="#FFEC00" d="M126.115,419.853l-6.994-6.523l0.504-0.751l3.502,3.352c0.864,0.826,1.718,1.666,2.368,2.329l0.012-0.013
			c-0.542-0.881-1.147-1.99-1.802-3.203l-2.562-4.729l0.498-0.747l3.524,3.354c0.821,0.781,1.638,1.573,2.333,2.33l0.012-0.019
			c-0.59-0.983-1.159-2.021-1.8-3.179l-2.569-4.725l0.488-0.728l5.013,9.484l-0.498,0.743l-3.621-3.431
			c-0.887-0.84-1.557-1.5-2.218-2.226l-0.011,0.017c0.538,0.885,1.048,1.784,1.691,3.009l2.629,4.909L126.115,419.853z"/>
		<path fill="#FFEC00" d="M128.188,411.073c1.082,1.381,1.938,1.334,2.42,0.615c0.345-0.514,0.456-0.954,0.511-1.388l0.646,0.616
			c-0.043,0.421-0.19,1.041-0.611,1.668c-0.818,1.222-2.184,0.794-3.497-0.92c-1.312-1.717-1.875-3.768-1.103-4.922
			c0.865-1.292,2.345,0,3.145,1.044c0.162,0.213,0.277,0.396,0.351,0.504L128.188,411.073z M129.036,408.223
			c-0.497-0.665-1.411-1.494-1.952-0.68c-0.488,0.725,0.034,2.006,0.543,2.779L129.036,408.223z"/>
		<path fill="#FFEC00" d="M126.316,401.69l0.48-0.72l6.384,8.34l-0.483,0.723L126.316,401.69z"/>
		<path fill="#FFEC00" d="M135.718,405.073c-0.019,0.326-0.154,0.933-0.51,1.462c-0.798,1.194-2.21,0.809-3.541-0.933
			c-1.338-1.751-1.75-3.853-0.887-5.145c0.288-0.424,0.657-0.646,0.895-0.702l0.503,0.962c-0.225,0.029-0.504,0.172-0.768,0.562
			c-0.607,0.908-0.197,2.363,0.708,3.551c1.007,1.316,2.021,1.538,2.548,0.755c0.273-0.412,0.337-0.834,0.375-1.168L135.718,405.073
			z"/>
		<path fill="#FFEC00" d="M136.601,398.02c1.609,2.103,1.631,4.029,0.988,4.988c-0.716,1.071-2.133,0.765-3.507-1.029
			c-1.456-1.903-1.73-3.887-0.997-4.981C133.85,395.86,135.269,396.277,136.601,398.02z M134.541,401.213
			c0.954,1.246,2.009,1.688,2.478,0.987c0.459-0.688,0.095-2.132-0.883-3.411c-0.737-0.965-1.898-1.851-2.468-1.002
			C133.1,398.635,133.715,400.134,134.541,401.213z"/>
		<path fill="#FFEC00" d="M136.248,395.85c-0.449-0.588-0.823-1.061-1.198-1.507l0.423-0.626l0.723,0.884l0.015-0.024
			c-0.265-0.766-0.405-1.636,0.032-2.291c0.361-0.54,0.996-0.476,1.624,0.021l0.01-0.019c-0.163-0.438-0.247-0.841-0.27-1.18
			c-0.04-0.494,0.027-0.897,0.281-1.274c0.349-0.523,1.247-0.806,2.756,1.172l2.561,3.345l-0.472,0.704l-2.464-3.222
			c-0.834-1.092-1.523-1.471-1.912-0.891c-0.274,0.407-0.154,1.158,0.151,1.789c0.083,0.175,0.21,0.388,0.356,0.577l2.689,3.513
			l-0.473,0.701l-2.607-3.409c-0.691-0.903-1.381-1.285-1.749-0.737c-0.3,0.45-0.126,1.293,0.194,1.927
			c0.089,0.191,0.213,0.387,0.349,0.562l2.623,3.431l-0.47,0.706L136.248,395.85z"/>
		<path fill="#FFEC00" d="M142.227,390.122c1.082,1.384,1.94,1.339,2.422,0.622c0.344-0.518,0.454-0.959,0.508-1.389l0.646,0.61
			c-0.042,0.422-0.188,1.043-0.609,1.669c-0.817,1.225-2.184,0.796-3.499-0.919c-1.309-1.716-1.873-3.768-1.101-4.924
			c0.866-1.288,2.344,0,3.147,1.047c0.16,0.212,0.275,0.392,0.349,0.504L142.227,390.122z M143.074,387.275
			c-0.496-0.665-1.411-1.494-1.953-0.685c-0.489,0.726,0.037,2.011,0.546,2.786L143.074,387.275z"/>
		<path fill="#FFEC00" d="M142.881,379.164l1.249,1.634l0.691-1.031l0.6,0.785l-0.69,1.032l2.347,3.067
			c0.538,0.703,0.938,0.964,1.206,0.564c0.126-0.188,0.192-0.361,0.225-0.486l0.614,0.742c-0.029,0.221-0.132,0.5-0.319,0.775
			c-0.225,0.339-0.521,0.455-0.853,0.345c-0.371-0.102-0.807-0.535-1.317-1.204l-2.374-3.101l-0.41,0.613l-0.602-0.789l0.41-0.612
			l-1.044-1.364L142.881,379.164z"/>
		<path fill="#FFEC00" d="M149.865,378.223c1.608,2.103,1.632,4.033,0.992,4.989c-0.719,1.071-2.135,0.767-3.511-1.031
			c-1.453-1.901-1.726-3.886-0.992-4.981C147.113,376.065,148.535,376.483,149.865,378.223z M147.809,381.421
			c0.952,1.242,2.005,1.687,2.477,0.981c0.46-0.685,0.096-2.127-0.883-3.409c-0.739-0.966-1.897-1.853-2.466-1.001
			C146.366,378.843,146.98,380.337,147.809,381.421z"/>
		<path fill="#FFEC00" d="M130.318,427.035c0.167-0.425,0.414-0.946,0.799-1.516c0.469-0.703,0.994-0.984,1.536-0.891
			c0.491,0.076,1.052,0.474,1.589,1.177c0.55,0.719,0.882,1.427,1.012,2.116c0.187,0.95,0.003,1.859-0.463,2.553
			c-0.145,0.214-0.283,0.398-0.438,0.504l2.428,3.171l-0.479,0.714L130.318,427.035z M133.716,430.143
			c0.148-0.095,0.298-0.271,0.456-0.506c0.576-0.858,0.469-1.982-0.367-3.073c-0.8-1.045-1.532-1.037-2.058-0.253
			c-0.208,0.311-0.341,0.585-0.386,0.755L133.716,430.143z"/>
		<path fill="#FFEC00" d="M134.081,422.582c0.273,0.343,0.37,0.805,0.179,1.09c-0.172,0.253-0.506,0.152-0.776-0.199
			c-0.279-0.365-0.369-0.838-0.194-1.099C133.469,422.104,133.801,422.215,134.081,422.582z M139.115,430.668l-4.35-5.688
			l0.481-0.721l4.35,5.69L139.115,430.668z"/>
		<path fill="#FFEC00" d="M139.638,428.604l-1.363-5.137c-0.118-0.48-0.215-0.912-0.33-1.4l-0.017-0.022l-1.433,2.142l-0.639-0.832
			l2.02-3.016l0.489,0.653l1.344,5.064c0.131,0.483,0.239,0.93,0.341,1.402l0.02,0.023l1.549-2.314l0.629,0.823l-2.151,3.216
			L139.638,428.604z"/>
		<path fill="#FFEC00" d="M141.984,425.104l-1.363-5.141c-0.119-0.478-0.215-0.908-0.331-1.396l-0.017-0.02l-1.436,2.139
			l-0.638-0.832l2.022-3.017l0.488,0.655l1.343,5.065c0.132,0.477,0.24,0.928,0.343,1.399l0.017,0.022l1.55-2.312l0.63,0.82
			l-2.153,3.214L141.984,425.104z"/>
		<path fill="#FFEC00" d="M146.556,419.564l-0.586-0.661l-0.017,0.026c0.193,0.664,0.214,1.489-0.164,2.057
			c-0.536,0.797-1.43,0.396-2.062-0.426c-1.048-1.373-1.054-2.977-0.022-4.492l-0.087-0.118c-0.363-0.47-1.07-1.228-1.61-0.416
			c-0.249,0.366-0.377,0.913-0.369,1.45l-0.629-0.517c-0.014-0.635,0.151-1.306,0.486-1.804c0.809-1.213,1.914-0.318,2.785,0.822
			l1.628,2.125c0.376,0.494,0.756,0.961,1.085,1.3L146.556,419.564z M144.264,416.765c-0.543,0.764-0.987,1.854-0.141,2.958
			c0.51,0.671,0.961,0.68,1.208,0.312c0.345-0.517,0.206-1.312-0.085-1.908c-0.065-0.131-0.146-0.266-0.225-0.372L144.264,416.765z"
			/>
		<path fill="#FFEC00" d="M143.991,408.293l-1.122,1.677l-0.666-0.87l2.731-4.076l0.667,0.864l-1.127,1.688l5.391,7.051
			l-0.482,0.718L143.991,408.293z"/>
		<path fill="#FFEC00" d="M151.188,406.462c1.61,2.101,1.632,4.034,0.99,4.988c-0.717,1.073-2.134,0.77-3.508-1.027
			c-1.456-1.903-1.729-3.888-0.997-4.984C148.436,404.305,149.858,404.724,151.188,406.462z M149.129,409.659
			c0.953,1.246,2.005,1.687,2.478,0.983c0.461-0.689,0.096-2.13-0.884-3.41c-0.737-0.964-1.896-1.853-2.468-1
			C147.686,407.081,148.304,408.578,149.129,409.659z"/>
		<path fill="#FFEC00" d="M149.812,402.525l2.561,2.367c0.562,0.521,1.083,1.004,1.581,1.519l0.017-0.026
			c-0.378-0.666-0.758-1.406-1.139-2.148l-1.788-3.55l0.408-0.604l2.585,2.231c0.62,0.532,1.155,1.019,1.656,1.505l0.014-0.026
			c-0.395-0.641-0.782-1.347-1.205-2.146l-1.808-3.417l0.477-0.713l3.496,6.964l-0.439,0.652l-2.479-2.108
			c-0.58-0.497-1.087-0.948-1.666-1.518l-0.011,0.017c0.456,0.779,0.823,1.486,1.196,2.238l1.64,3.34l-0.437,0.652l-5.151-4.492
			L149.812,402.525z"/>
		<path fill="#FFEC00" d="M154.831,398.335c-0.45-0.589-0.822-1.064-1.198-1.511l0.427-0.637l0.746,0.9l0.012-0.015
			c-0.283-0.742-0.379-1.723,0.058-2.378c0.369-0.546,1.297-0.928,2.787,1.021l2.6,3.397l-0.484,0.723l-2.508-3.279
			c-0.698-0.919-1.441-1.444-1.898-0.768c-0.316,0.473-0.194,1.323,0.165,2.023c0.078,0.162,0.201,0.353,0.333,0.528l2.618,3.422
			l-0.483,0.718L154.831,398.335z"/>
	</g>
	<g>
		<path fill="#377211" d="M139,509c20.395,0,41.605,0,62,0"/>
		<g>
			<g>
				<path fill="#377211" d="M196.975,531.197h-53.943c-1.339-0.646-2.678-1.326-4.032-2.035c0.658-0.339,1.309-0.675,1.956-1.01
					c-0.111-0.473-0.244-0.635-0.349-0.328c-0.028-0.373-0.208-3.116-0.105-4.91c0.103-1.799,0.227-3.037,0.175-3.524
					c0.124,0.149,0.262,0.944,0.248,1.806c0.039-1.307,0.136-2.338,0.257-2.961c0.122-0.625,0.293-2.096,0.175-3.062
					c0.171-0.158,0.561,3.113,0.396,7.834c0.09-1.015,0.232-1.347,0.294-1.518c0,0.049,0.001,0.111,0.002,0.174
					c0.273-2.871,0.497-4.83,0.417-5.869c0.29,0.639,0.579,2.873,0.496,4.922c0.167-3.069,0.461-5.34,0.788-6.57
					c0.329-1.233,0.825-4.398,0.595-6.996c0.307,0.004,0.789,4.629,0.775,11.374c0.112-0.421,0.227-0.716,0.338-0.866
					c0.262-0.353,0.704-1.746,0.644-3.797c0.163,0.353,0.295,2.838,0.214,6.108c0.206-0.747,0.419-1.296,0.612-2.138
					c0.784-3.416,0.801-4.695,0.87-8.22c0.017-0.842,0.224-1.062,0.301-0.511c0.118,0.839,0.205,1.749,0.264,2.71
					c0.248,0.343,0.52,1.929,0.491,3.653c0.079-2.664,0.278-4.764,0.523-6.033c0.248-1.273,0.596-4.271,0.357-6.236
					c0.349-0.323,1.143,6.342,0.805,15.953c0.183-2.064,0.473-2.738,0.601-3.09c0.001,0.1,0.002,0.227,0.003,0.354
					c0.556-5.846,1.012-9.836,0.851-11.951c0.59,1.297,1.179,5.848,1.009,10.021c0.341-6.251,0.94-10.873,1.604-13.381
					c0.67-2.512,1.68-8.958,1.214-14.248c0.624,0.008,1.605,9.428,1.579,23.164c0.228-0.856,0.46-1.457,0.688-1.764
					c0.534-0.717,1.433-3.558,1.31-7.732c0.332,0.717,0.602,5.78,0.436,12.441c0.42-1.521,0.853-2.641,1.247-4.354
					c1.598-6.959,1.631-9.564,1.771-16.742c0.034-1.715,0.457-2.164,0.614-1.039c0.792,5.603,0.951,12.596,0.381,20.637
					c-0.271,3.824-0.617,7.043-1.003,9.683l0.485-0.05l0.02-0.084c0.284-1.088,0.582-1.812,0.851-2.98
					c1.004-4.373,1.025-6.012,1.113-10.522c0.021-1.076,0.287-1.359,0.386-0.651c0.497,3.52,0.598,7.913,0.239,12.967
					c-0.029,0.371-0.056,0.715-0.084,1.068c0.544-0.027,1.093-0.054,1.653-0.08c0.011-0.308,0.022-0.605,0.033-0.885
					c0.135-2.371,0.299-4.002,0.23-4.643c0.163,0.195,0.345,1.244,0.326,2.379c0.051-1.723,0.18-3.081,0.339-3.9
					c0.16-0.825,0.385-2.764,0.23-4.035c0.226-0.209,0.739,4.103,0.521,10.318c0.118-1.334,0.305-1.771,0.388-1.999
					c0,0.066,0.001,0.147,0.002,0.229c0.359-3.781,0.654-6.362,0.55-7.73c0.382,0.84,0.763,3.783,0.653,6.483
					c0.221-4.044,0.608-7.034,1.038-8.655c0.433-1.625,1.086-5.795,0.785-9.217c0.404,0.006,1.038,6.099,1.021,14.983
					c0.147-0.554,0.298-0.941,0.445-1.142c0.345-0.463,0.926-2.3,0.847-5.001c0.215,0.464,0.389,3.74,0.282,8.048
					c0.271-0.984,0.552-1.707,0.806-2.816c1.034-4.501,1.055-6.187,1.146-10.83c0.022-1.107,0.295-1.398,0.397-0.671
					c0.512,3.624,0.615,8.147,0.247,13.349c-0.168,2.379-0.382,4.399-0.62,6.07l0.318,0.036c0.178-0.663,0.363-1.13,0.531-1.858
					c0.649-2.828,0.663-3.889,0.72-6.807c0.014-0.695,0.186-0.879,0.25-0.422c0.321,2.277,0.387,5.119,0.155,8.389
					c-0.024,0.313-0.048,0.608-0.071,0.902c8.464,1.217,14.987,4.127,21.923,7.773C199.648,529.871,198.312,530.551,196.975,531.197
					z M147.973,524.215c-0.01-0.438-0.021-0.887-0.032-1.339c-0.101,0.823-0.208,1.55-0.321,2.187l0.22-0.089
					C147.877,524.707,147.921,524.45,147.973,524.215z"/>
			</g>
		</g>
	</g>
	<g>
		<path fill="#377211" d="M530,453"/>
		<g>
			<path fill="none" stroke="#7AA161" stroke-miterlimit="10" d="M530,453"/>
		</g>
	</g>
</g>
</svg>
