<?xml version="1.0" encoding="utf-8"?>
<!-- Generator: Adobe Illustrator 16.0.0, SVG Export Plug-In . SVG Version: 6.00 Build 0)  -->
<!DOCTYPE svg PUBLIC "-//W3C//DTD SVG 1.1//EN" "http://www.w3.org/Graphics/SVG/1.1/DTD/svg11.dtd">
<svg version="1.1" id="Layer_1" xmlns="http://www.w3.org/2000/svg" xmlns:xlink="http://www.w3.org/1999/xlink" x="0px" y="0px"
	 width="100px" height="100px" viewBox="0 0 100 100" enable-background="new 0 0 100 100" xml:space="preserve">
<g id="Layer_1_1_">
	<circle fill="#FFDFC4" cx="49.653" cy="44.503" r="30.877"/>
	<polyline fill="#FFDFC4" points="34.671,71.503 39.084,84.409 27.885,88.354 29.305,90.246 37.35,90.562 42.87,86.303 
		41.766,82.359 44.019,74.861 50.915,75.38 	"/>
	<polyline fill="#FFDFC4" points="50.915,75.38 53.658,79.479 54.068,83.917 53.246,86.618 54,88.511 54,92.455 56.4,94.979 
		60.52,93.243 59.029,86.934 60.809,85.041 60.986,80.311 61.861,72.857 	"/>
	<path fill="#FFDFC4" d="M38.294,15.79c0,0-18.612,0.952-20.662,5.999c0,0-8.202,5.047-6.94,6.467
		c1.262,1.42-7.414,14.669-6.94,16.247c0.474,1.577-4.259,18.455-2.997,21.608c1.262,3.154,3.943,0.474,4.417,0
		C5.644,65.641,3.278,62.8,4.855,62.8c0,0,0.631-0.631,1.104,0.315c0.474,0.947,0.315,2.996,0.315,2.996s0.789,0.947,1.262-0.314
		c0.474-1.262-1.577-4.574-0.946-4.574c0.631,0,4.89-7.57,4.89-8.676c0-1.104,4.597-5.994,5.216-8.044
		c0.62-2.051,2.411,2.578,2.256,3.305"/>
	<path fill="#FFDFC4" d="M61.872,16.144c0,0,17.454,0.598,19.506,5.645c0,0,8.201,5.047,6.938,6.467
		c-1.26,1.42,7.414,14.669,6.939,16.247c-0.473,1.577,4.262,18.455,2.997,21.608c-1.262,3.154-3.942,0.474-4.416,0
		c-0.473-0.471,1.894-3.312,0.313-3.312c0,0-0.629-0.631-1.103,0.315c-0.475,0.946-0.315,2.995-0.315,2.995
		s-0.789,0.947-1.264-0.313c-0.473-1.262,1.579-4.573,0.947-4.573c-0.631,0-4.891-7.57-4.891-8.677c0-1.104-4.596-5.994-5.215-8.044
		c-0.621-2.051-2.441,4.811-2.287,5.538"/>
	<path fill="#FFDFC4" d="M41.608,14.692c0,0-3.148-12.269,6.947-12.427c10.093-0.158,7.638,11.154,7.837,12.105"/>
</g>
<g id="Layer_2">
	<path fill="#9B0000" d="M65.586,16.4l9.016,1.463c-3.441,20.996,5.928,29.526,5.928,29.526
		C78.124,66.68,63.146,72.441,61.872,72.857c-7.696,2.521-14.111,4.662-27.201-1.354c-13.724-6.31-15.719-23.695-15.719-23.695
		c8.417-10.575,5.424-29.945,5.424-29.945s9.537-1.699,9.74-1.719C34.32,16.123,46.977,31.832,65.586,16.4z"/>
	<circle fill="#FFFFFF" stroke="#000000" stroke-width="0.25" stroke-miterlimit="10" cx="45.098" cy="8.128" r="1.333"/>
	<circle fill="#FFFFFF" stroke="#000000" stroke-width="0.25" stroke-miterlimit="10" cx="52.669" cy="8.128" r="1.333"/>
	<path fill="none" stroke="#000000" stroke-width="0.25" stroke-miterlimit="10" d="M47.866,11.17c0,0,0.912,1.471,1.875,0
		c0,0-1.73-1.787-0.909-1.682"/>
	<path fill="none" stroke="#000000" stroke-width="0.25" stroke-miterlimit="10" d="M43.134,5.702c0,0,2.733-1.157,3.996,0"/>
	<path fill="none" stroke="#000000" stroke-width="0.25" stroke-miterlimit="10" d="M54.7,5.444c0,0-3.365-0.899-3.785,0.258"/>
	<path fill="none" stroke="#000000" stroke-width="0.25" stroke-miterlimit="10" d="M46.432,13.792c0,0,3.434,1.363,4.904,0"/>
</g>
</svg>
