<?xml version="1.0" encoding="utf-8"?>
<!-- Generator: Adobe Illustrator 16.0.0, SVG Export Plug-In . SVG Version: 6.00 Build 0)  -->
<!DOCTYPE svg PUBLIC "-//W3C//DTD SVG 1.1//EN" "http://www.w3.org/Graphics/SVG/1.1/DTD/svg11.dtd">
<svg version="1.1" xmlns="http://www.w3.org/2000/svg" xmlns:xlink="http://www.w3.org/1999/xlink" x="0px" y="0px" width="500px"
	 height="500px" viewBox="0 0 500 500" enable-background="new 0 0 500 500" xml:space="preserve">
<g id="Layer_1">
	<path fill="#FFCE00" d="M32.01,384.56c-3.28,1.04-6.52,1.82-9.7,2.28c0.25-2.52,0.66-4.76,1.28-6.35
		C26.77,372.31,30.73,378.95,32.01,384.56z"/>
	<path fill="#FFCE00" d="M56.24,373.57c-4.95,2.75-9.95,5.319-14.9,7.46c-1.66-9.49-0.84-17.67,10.1-11.86
		C53.41,370.22,54.99,371.72,56.24,373.57z"/>
	<path fill="#FFCE00" d="M171.02,326.15c-8.99,3.1-18.07,5.899-27.16,8.64c2.98-5.75,7.5-10.22,15.79-11.82
		C165.44,321.86,168.09,322.71,171.02,326.15z"/>
	<path fill="#FFCE00" d="M246.95,292.23c-5.11,2.35-10.17,4.789-15.23,7.25C235.82,293.58,239.54,285.17,246.95,292.23z"/>
	<path fill="#FFCE00" d="M441.27,214.77c-0.359,14.13-40.51,24.01-53.26,27.72c-17.479,5.08-32.649,6.42-49.359,12.359
		c-14.45,5.141-28.4,10.91-42.33,16.71c0.18-0.199,0.37-0.38,0.569-0.54c1.391-1.149,6.71-1.699,5.16-4.579
		c-1.149-2.131-11.22-2.08-13.479-1.82c-4.13,0.46-8.61,2.46-12.67,3.399c-8.801,2.051-17.7,3.69-26.53,5.62
		c-8.84,1.931-15.15,4.12-23.26,8.69c-9.22,5.2-18.46,10.43-27.6,15.77c-3.15,1.851-6.76,4.641-10.24,6.091
		c-12.57,5.26-24.31,10.829-35.92,18.079c-5.32,3.32-11.81,3.48-17.85,5.141c-10.6,2.92-19.36,10.52-30.08,12.53
		c-6.19,1.149-12.31,2.63-18.51,3.68c-5.6,0.96-11.41,0.82-16.9,1.899c-11.34,2.25-21.07,9.271-30.85,15.021
		c-4.14,2.44-16.34,15.3-21.79,12.479c-2.6,2.74-5.7,5.881-4.34,9.19c0.76,1.87,2,3,2.56,5.08c-3.46-0.13-6.81-0.74-10.02-1.94
		c13.1-15.779,28.9-30.34,43.1-45c18.98-19.569,30.2-38.399,46.84-60.189c20.29-26.59,41.92-47.32,62.03-74.05
		c17.23-22.91,42.11-40.67,56.36-66.03l-1.77,3.54c6.99,5.4,21.69,10.11,31.42,15.56c19.7,11.04,42.62,13.39,63.75,19.45
		C351.01,191.45,396.96,204.14,441.27,214.77z"/>
	<linearGradient id="SVGID_1_" gradientUnits="userSpaceOnUse" x1="248.3911" y1="397.1152" x2="248.3911" y2="143.2393">
		<stop  offset="0.2696" style="stop-color:#543107"/>
		<stop  offset="0.8547" style="stop-color:#936B31"/>
	</linearGradient>
	<path fill="url(#SVGID_1_)" d="M3.163,385.857c-0.206,3.295,0.841,6.405,1.876,9.351c6.259,0.421,12.148,2.173,18.845,1.873
		c8.369-0.373,14.666-4.395,21.965-8.303c18.95-10.148,38.699-20.56,57.723-30.1c5.38-2.698,11.241-3.361,16.976-5.142
		c11.933-3.703,23.807-7.057,35.936-10.718c13.753-4.151,25.658-7.37,38.606-14.17c3.457-1.813,6.806-4.66,10.302-6.466
		c5.617-2.9,12.502-3.231,18.425-5.697c9.356-3.892,17.972-8.455,26.804-13.386c14.685-8.197,28.793-12.108,44.598-16.837
		c17.198-5.146,32.54-15.014,48.59-22.6c6.492-3.07,12.665-6.551,19.729-8.242c3.13-0.75,6.412-1.237,9.564-1.925
		c5.28-1.151,9.651-3.291,14.816-4.894c14.78-4.591,30.313-3.948,44.743-9.711c3.518-1.405,7.231-2.224,10.74-3.547
		c2.694-1.016,5.013-1.972,7.609-3.218c6.3-3.025,9.319-6.73,14.709-11.503c3.718-3.29,8.214-5.944,10.81-9.519
		c3.064-4.221,6.25-10.622,8.154-15.488c3.187-8.148,8.095-18.826,8.86-27.632c2.057-23.699-27.524-27.569-44.799-23.158
		c-19.123,4.883-38.088,28.904-26.849,48.558c2.847,4.979,6.336,9.264,10.65,13.028c3.063,2.673,8.001,4.136,8.402,8.699"/>
	<path fill="#AA3C1A" d="M221.762,171.095c-15.863,7.844-42.586,13.735-47.675,34.071c-2.694,10.764-0.955,22.446,9.551,26.407
		c14.272,5.377,24.606,2.083,35.417-6.485c12.134-9.618,35.604-13.183,31.95-33.609c-2.699-15.099-19.221-18.567-32.789-18.611"/>
	<path fill="#AA3C1A" d="M324.445,195.401c-17.234,4-44.599,3.609-54.214,22.238c-5.089,9.859-6.074,21.629,3.245,27.893
		c12.66,8.505,23.475,7.667,35.962,1.805c14.015-6.582,37.677-4.675,38.804-25.393c0.83-15.314-14.454-22.478-27.651-25.629"/>
	<path fill="#AA3C1A" d="M168.59,252.626c-15.861,7.844-42.586,13.736-47.675,34.07c-2.694,10.765-0.956,22.446,9.551,26.407
		c14.273,5.377,24.606,2.084,35.417-6.484c12.135-9.619,35.604-13.183,31.952-33.609c-2.7-15.099-19.221-18.567-32.79-18.611"/>
	<path fill="#FFCE00" d="M296.89,271.02c-0.199,0.16-0.39,0.341-0.569,0.54c-9.811,4.091-19.61,8.2-29.551,12.12
		c-6.729,2.66-13.31,5.54-19.819,8.551c-7.41-7.061-11.13,1.35-15.23,7.25c0,0,0,0.01-0.01,0.01c-11.5,5.58-22.95,11.31-34.81,16.59
		c-8.49,3.78-17.14,7.07-25.88,10.07c-2.93-3.44-5.58-4.29-11.37-3.181c-8.29,1.601-12.81,6.07-15.79,11.82
		c-3.84,7.41-5.12,16.94-8.63,25.15c-2.94,6.859-8.49,12.449-12.21,18.63c-6.29,10.439-11.32,19.63-9.35,32.319
		c1.04,6.721,7.53,13.851,13.46,17.46c2.08,1.271,6.82,0.891,7.21,3.931c0.61,4.62-5.34,3.67-8.64,3.39
		c-20.85-1.83-22.91-30.63-20.54-47.4c0.94-6.579,7.1-37.579-10.31-26.75c-8.42,5.24-3.03,28.341-5.35,37.53
		c-1.21,4.811-5.29,9.75-5.18,14.63c0.14,6.29,6.13,8.92,3.21,15.9C69.31,427.13,82.71,401.83,83,391
		c0.15-5.59-1.53-20.45-10.03-18.03c-3.99,1.13-7.32,10.66-7.82,13.88c-1.02,6.591,0.53,13.57-0.3,20.181
		c-0.98,7.859-1.83,15.1-1.85,23.3c-0.02,6.06,10.85,25.97-1.33,25.34c-10.7-0.57-4.56-34.52-3.3-41.479
		c1.75-9.71,4.84-30.37-2.13-40.62c-1.25-1.851-2.83-3.351-4.8-4.4c-10.94-5.81-11.76,2.37-10.1,11.86
		c-3.13,1.37-6.25,2.56-9.33,3.529c-1.28-5.609-5.24-12.25-8.42-4.069c-0.62,1.59-1.03,3.83-1.28,6.35
		c-2.62,0.38-5.2,0.55-7.72,0.45c-0.56-2.08-1.8-3.21-2.56-5.08c-1.36-3.31,1.74-6.45,4.34-9.19
		c5.45,2.82,17.65-10.039,21.79-12.479c9.78-5.75,19.51-12.771,30.85-15.021c5.49-1.079,11.3-0.939,16.9-1.899
		c6.2-1.05,12.32-2.53,18.51-3.68c10.72-2.011,19.48-9.61,30.08-12.53c6.04-1.66,12.53-1.82,17.85-5.141
		c11.61-7.25,23.35-12.819,35.92-18.079c3.48-1.45,7.09-4.24,10.24-6.091c9.14-5.34,18.38-10.569,27.6-15.77
		c8.11-4.57,14.42-6.76,23.26-8.69c8.83-1.93,17.729-3.569,26.53-5.62c4.06-0.939,8.54-2.939,12.67-3.399
		c2.26-0.26,12.33-0.311,13.479,1.82C303.6,269.32,298.28,269.87,296.89,271.02z"/>
	<path fill="#FFCE00" d="M25.66,421.72C26.9,434.58,9.62,434.48,9.65,425c0.01-2.81,3.51-3.56,4.72-6.65
		c1.56-3.989-0.27-10.949-0.04-15.35c0.26-4.94,1.22-9.98,0.43-14.92c-0.04-0.28-0.1-0.54-0.17-0.79c2.52,0.1,5.1-0.07,7.72-0.45
		c-0.64,6.311-0.32,14.41,0.02,18.79C22.78,411.27,25.14,416.27,25.66,421.72z"/>
	<path fill="#FFCE00" d="M46.18,399.82c1.95,9.31,2.45,27.949-6.01,34.35c-3.74,2.82-11.24,3.2-9.37-3.35
		c0.99-3.44,7.04-5.99,8.23-10.49c3.33-12.5-5.2-22.23-6.7-34c-0.07-0.561-0.18-1.16-0.32-1.771c3.08-0.97,6.2-2.159,9.33-3.529
		C42.68,388.66,45.62,397.13,46.18,399.82z"/>
	<path fill="#FFCE00" d="M196.9,316.08c11.86-5.28,23.31-11.01,34.81-16.59c-0.55,0.8-1.11,1.55-1.69,2.21
		c-4.44,5.08-8.59,5.47-9.69,12.47c-2.13,13.6,8.29,23.92,9.33,36.68c0.76,9.2-3.5,17.29-6.68,25.351
		c-2.79,7.09-0.6,8.37,1.35,15.64c0.81,3.021,2.61,12.71-0.32,15.21c-2.92,2.48-8.61-0.859-11.58-1.479
		c-1.66-10.73,1.07-24.13,3.2-33.9c1.83-8.41,1.16-19.7-1.57-27.97c-2.78-8.47-9.26-16.37-10.49-25.271
		c-9.91-0.51-16.21-0.5-16.57,10.021c-0.39,11.51,4.47,19.7,5.33,30.189c1.84,22.2-14.43,41.551-15.33,63.03
		c-0.35,8.28-0.89,19.3,1.34,27.311c1.54,5.569,8.35,9.789,7.18,15.869c-1.69,8.78-12.54,2.511-15.09-3.199
		c-2.24-5.04-0.1-15.66-0.1-21.32c0-11.85-0.01-22.94,3.99-34.08c4.97-13.87,7.78-26.49,7.35-41.35
		c-0.33-11.19-2.72-28.561-9.86-37.78c-0.27-0.34-0.53-0.67-0.79-0.97C179.76,323.15,188.41,319.86,196.9,316.08z"/>
	<path fill="#FFCE00" d="M296.32,271.56c-2.141,2.221-3.9,6.631-4.67,9.44c-1.2,4.34-1.16,9.47-2.811,13.74
		c-1.02,2.64-3.109,4.72-4.49,7.16c-2.279,4.029-3.17,8.33-4.09,12.819c-1.229,6.021-2.3,14.53-0.12,20.63
		c1.011,2.811,4.23,4.87,4.931,7.78c0.59,2.5-0.641,5.78-0.74,8.29c-0.28,6.73-0.311,13.71-1.61,20.29
		c-0.569,2.88-1.67,5.08-1.39,8.32c0.25,3.06,1.32,5.46,2.26,8.359c0.88,2.7,1.23,4.87-2.59,5.61c-4.09,0.8-8.3-2.56-8.1-6.31
		c0.27-5.051,3.04-9.74,3.1-15.08c0.1-8.221,0.21-16.73-1.93-24.641c-1.21-4.479-3.36-11.77-8.09-13.89
		c-4.69-2.11-3.811,2.83-3.65,5.92c0.25,4.76,0,8.93-1.4,13.42c-1.38,4.38-1.1,6.91,1.391,10.57c1.47,2.16,3.029,4.99,1.77,7.75
		c-1.13,2.49-6.71,4.83-9.35,3.189c-2.601-1.62-1.561-8.899-1.41-11.689c0.22-3.931,2.05-7.061,2.689-10.811
		c0.771-4.63-0.579-9.899-0.689-14.489c-0.16-5.96,0.32-12,0.34-18c0.01-5.44-2.97-8.841-3.67-13.98c-0.79-5.84-0.78-9.64-5-13.69
		c-0.02-0.02-0.03-0.029-0.05-0.039c6.51-3.011,13.09-5.891,19.819-8.551C276.71,279.76,286.51,275.65,296.32,271.56z"/>
	<linearGradient id="SVGID_2_" gradientUnits="userSpaceOnUse" x1="415.8154" y1="181.6787" x2="482.2051" y2="181.6787">
		<stop  offset="0" style="stop-color:#543107"/>
		<stop  offset="0.5143" style="stop-color:#8E662D"/>
		<stop  offset="0.7332" style="stop-color:#936B31"/>
	</linearGradient>
	<path fill="url(#SVGID_2_)" d="M478.5,147c-5.805,0-12.702-0.898-18.378,0.628c-1.913,0.514-3.969,0.994-5.901,1.248
		c-2.726,0.357-5.54,0.016-8.232,0.863c-1.751,0.55-2.955,1.731-4.488,2.668c-2.593,1.584-6.312,2.21-8.152,4.849
		c-1.769,2.536-3.927,5.177-6.135,7.538c-3.323,3.554-5.315,6.724-5.554,11.643c-0.159,3.279-0.472,6.801-0.171,10.09
		c0.127,1.385,0.599,2.844,1.046,4.166c0.506,1.495,1.36,2.061,2.586,3.062c3.615,2.955,7.396,5.764,11.051,8.614
		c2.621,2.043,4.588,5.24,6.93,7.628c1.229,1.253,2.421,2.933,2.793,4.682c0.372,1.756,0.781,5.375-0.845,6.561
		c-1.593,1.161-3.433,0.223-4.956-0.587c-3.085-1.64-5.233-3.991-7.525-6.583c-1.29-1.459-2.524-2.619-4.011-3.788
		c-1.739-1.369-3.004-3.005-4.222-4.836c-1.301-1.956-3.024-3.822-4.162-5.865c-0.468-0.839-0.57-1.383-0.758-2.35
		c-0.612-3.153-1.523-6.241-2.137-9.393c-0.57-2.932-0.964-5.831-1.057-8.799c-0.096-3.04-0.795-6.679-0.107-9.673
		c0.927-4.041,4.867-7.944,7.525-10.943c1.633-1.842,3.553-2.824,5.558-4.109c3.223-2.065,5.87-4.655,9.436-6.178
		c2.041-0.872,3.872-1.414,5.847-2.489c1.933-1.053,4.188-1.949,6.278-2.605c6.029-1.894,13.179-1.408,19.466-1.416
		c4.37-0.006,9.821,2.368,11.981,6.48c-1.829-0.047-3.442-0.725-5.33-0.73"/>
</g>
<g id="Layer_2">
	<linearGradient id="SVGID_3_" gradientUnits="userSpaceOnUse" x1="346.3262" y1="83.4893" x2="346.3262" y2="216.9214">
		<stop  offset="0" style="stop-color:#543107"/>
		<stop  offset="0.5143" style="stop-color:#8E662D"/>
		<stop  offset="0.7332" style="stop-color:#936B31"/>
	</linearGradient>
	<path fill="url(#SVGID_3_)" d="M440.668,215.001c0.507-2.485-7.359-7.958-9.657-9.684c-1.843-1.383-3.592-2.718-5.262-4.651
		c-0.958-1.107-3.32-2.906-3.846-4.205c-0.992-2.452-0.211-5.816-0.821-8.454c-1.472-6.353-5.312-12.715-0.69-18.98
		c1.667-2.26,2.659-3.048,4.033-5.75c0.82-1.612,2.315-3.823,3.55-5.268c2.718-3.178,6.318-4.894,9.878-6.701
		c7.708-3.914,13.818-6.659,22.74-6.641c5.455,0.011,11.855-1.362,16.809,0.398c2.203,0.783,6.838,5.351,8.688,4.623
		c-7.09-6.877-18.241-9.992-27.422-13.03c-4.105-1.358-7.68-2.778-12.048-3.668c-5.948-1.212-12.546-1.325-18.219-3.396
		c-3.799-1.387-7.54-3.418-11.559-4.352c-6.492-1.508-12.406-1.57-18.79-3.933c-5.771-2.136-12.375-2.484-18.052-4.951
		c-5.206-2.262-8.915-5.301-14.691-6.431c-5.297-1.036-10.31-3.173-15.711-3.837c-6.991-0.86-13.948-2.297-20.94-2.683
		c-5.853-0.323-11.559-0.901-17.341-1.659c-2.296-0.301-3.522-1.115-5.645-1.757c-2.791-0.844-6.227-0.407-8.963-1.276
		c-3.104-0.986-5.377-3.752-8.102-5.466c-2.809-1.766-6.264-2.703-9.447-3.641c-5.084-1.499-9.513-4.905-14.747-5.699
		c-8.152-1.237-15.593,0.481-23.412,2.173c-5.061,1.095-9.508,3.821-14.278,5.308c-7.211,2.247-18.125,8.367-19.649,16.343
		c-0.582,3.047-0.585,7.218-0.415,10.317c0.272,4.95,3.495,8.586,4.432,13.283c0.642,3.215,0.784,6.745,0.909,10
		c0.167,4.355,1.541,5.716,4.917,8.416c3.04,2.43,5.945,3.875,9.75,5.242c6.631,2.382,12.944,5.968,19.451,8.302
		c7.985,2.864,15.907,6.012,23.961,8.723c2.981,1.004,5.104,2.183,7.938,3.593c3.096,1.54,5.939,1.309,9.314,1.701
		c11.207,1.301,21.818,5.16,32.302,9.021c10.638,3.918,22.275,4.17,33.182,7.935c9.4,3.245,18.47,6.097,28.219,8.192
		c5.867,1.261,11.766,1.896,17.508,3.551c3.221,0.929,6.354,2.268,9.615,3.071c8.03,1.979,15.783,0.829,23.459,4.686
		c1.512,0.759,7.921,4.569,9.741,2.591c0.086-0.024,0.172-0.049,0.258-0.073c0.042-1.078-0.497-1.58-1.282-1.951"/>
	<g>
		<path fill="#FFFFFF" d="M208.092,199.092"/>
		<g>
			<path fill="#FFFFFF" d="M208.092,200.592c1.935,0,1.935-3,0-3S206.158,200.592,208.092,200.592L208.092,200.592z"/>
		</g>
	</g>
	<g>
		<path fill="#FFFFFF" d="M197.593,220.091"/>
		<g>
			<path fill="#FFFFFF" d="M197.593,221.591c1.935,0,1.935-3,0-3S195.658,221.591,197.593,221.591L197.593,221.591z"/>
		</g>
	</g>
	<g>
		<path fill="#FFFFFF" d="M227.591,209.592"/>
		<g>
			<path fill="#FFFFFF" d="M227.591,211.092c1.935,0,1.935-3,0-3S225.657,211.092,227.591,211.092L227.591,211.092z"/>
		</g>
	</g>
	<g>
		<path fill="#FFFFFF" d="M223.092,191.593"/>
		<g>
			<path fill="#FFFFFF" d="M223.092,193.093c1.935,0,1.935-3,0-3S221.157,193.093,223.092,193.093L223.092,193.093z"/>
		</g>
	</g>
	<g>
		<path fill="#FFFFFF" d="M293.588,236.591"/>
		<g>
			<path fill="#FFFFFF" d="M293.588,238.091c1.935,0,1.935-3,0-3S291.653,238.091,293.588,238.091L293.588,238.091z"/>
		</g>
	</g>
	<g>
		<path fill="#FFFFFF" d="M284.589,215.592"/>
		<g>
			<path fill="#FFFFFF" d="M284.589,217.092c1.935,0,1.935-3,0-3S282.654,217.092,284.589,217.092L284.589,217.092z"/>
		</g>
	</g>
	<g>
		<path fill="#FFFFFF" d="M302.588,221.591"/>
		<g>
			<path fill="#FFFFFF" d="M302.588,223.091c1.935,0,1.935-3,0-3S300.653,223.091,302.588,223.091L302.588,223.091z"/>
		</g>
	</g>
	<g>
		<path fill="#FFFFFF" d="M328.086,229.091"/>
		<g>
			<path fill="#FFFFFF" d="M328.086,230.591c1.935,0,1.935-3,0-3S326.151,230.591,328.086,230.591L328.086,230.591z"/>
		</g>
	</g>
	<g>
		<path fill="#FFFFFF" d="M143.596,302.587"/>
		<g>
			<path fill="#FFFFFF" d="M143.596,304.087c1.935,0,1.935-3,0-3S141.661,304.087,143.596,304.087L143.596,304.087z"/>
		</g>
	</g>
	<g>
		<path fill="#FFFFFF" d="M142.096,283.088"/>
		<g>
			<path fill="#FFFFFF" d="M142.096,284.588c1.935,0,1.935-3,0-3S140.161,284.588,142.096,284.588L142.096,284.588z"/>
		</g>
	</g>
	<g>
		<path fill="#FFFFFF" d="M155.595,289.088"/>
		<g>
			<path fill="#FFFFFF" d="M155.595,290.588c1.935,0,1.935-3,0-3S153.661,290.588,155.595,290.588L155.595,290.588z"/>
		</g>
	</g>
	<g>
		<path fill="#FFFFFF" d="M166.095,271.089"/>
		<g>
			<path fill="#FFFFFF" d="M166.095,272.589c1.935,0,1.935-3,0-3S164.16,272.589,166.095,272.589L166.095,272.589z"/>
		</g>
	</g>
	<g>
		<path fill="#FFFFFF" d="M175.094,286.088"/>
		<g>
			<path fill="#FFFFFF" d="M175.094,287.588c1.935,0,1.935-3,0-3S173.16,287.588,175.094,287.588L175.094,287.588z"/>
		</g>
	</g>
	<g>
		<path fill="#314F02" d="M86.599,329.586c4.5,1.5,7.5,1.5,12,1.5"/>
		<g>
			<path fill="#314F02" d="M86.2,331.032c4.092,1.303,8.131,1.552,12.398,1.554c1.935,0.001,1.935-2.999,0-3
				c-4.004-0.002-7.758-0.223-11.601-1.446C85.149,327.551,84.364,330.447,86.2,331.032L86.2,331.032z"/>
		</g>
	</g>
	<g>
		<path fill="#314F02" d="M95.598,311.587"/>
		<g>
			<path fill="#314F02" d="M95.598,313.087c1.935,0,1.935-3,0-3S93.664,313.087,95.598,313.087L95.598,313.087z"/>
		</g>
	</g>
	<g>
		<path fill="#314F02" d="M158.595,235.091"/>
		<g>
			<path fill="#314F02" d="M158.595,236.591c1.935,0,1.935-3,0-3S156.66,236.591,158.595,236.591L158.595,236.591z"/>
		</g>
	</g>
	<g>
		<path fill="#314F02" d="M219,261c2,1,5,1,8,1"/>
		<g>
			<path fill="#314F02" d="M218.243,262.295c2.752,1.246,5.79,1.203,8.757,1.205c1.935,0.001,1.935-2.999,0-3
				c-2.352-0.001-5.045,0.199-7.243-0.795C218.009,258.914,216.483,261.498,218.243,262.295L218.243,262.295z"/>
		</g>
	</g>
	<g>
		<path fill="#314F02" d="M220,240"/>
		<g>
			<path fill="#314F02" d="M220,241.5c1.935,0,1.935-3,0-3S218.065,241.5,220,241.5L220,241.5z"/>
		</g>
	</g>
	<g>
		<path fill="#314F02" d="M250,251c0,1,0,1,0,1"/>
		<g>
			<path fill="#314F02" d="M248.5,251c0,0.333,0,0.667,0,1c0,1.935,3,1.935,3,0c0-0.333,0-0.667,0-1
				C251.5,249.065,248.5,249.065,248.5,251L248.5,251z"/>
		</g>
	</g>
	<g>
		<path fill="#314F02" d="M250,224c1-1,1-3,2-4"/>
		<g>
			<path fill="#314F02" d="M251.061,225.061c0.576-0.631,0.909-1.334,1.204-2.129c0.226-0.609,0.35-1.381,0.796-1.871
				c1.301-1.426-0.815-3.554-2.121-2.121c-0.576,0.631-0.909,1.334-1.204,2.129c-0.226,0.609-0.35,1.381-0.796,1.871
				C247.639,224.365,249.754,226.493,251.061,225.061L251.061,225.061z"/>
		</g>
	</g>
	<g>
		<path fill="#314F02" d="M261,195c2-1,5-2,8-3"/>
		<g>
			<path fill="#314F02" d="M261.757,196.295c2.446-1.185,5.069-1.991,7.642-2.849c1.826-0.609,1.043-3.506-0.797-2.893
				c-2.822,0.941-5.676,1.852-8.358,3.151C258.502,194.548,260.024,197.134,261.757,196.295L261.757,196.295z"/>
		</g>
	</g>
	<g>
		<path fill="#314F02" d="M305,193"/>
		<g>
			<path fill="#314F02" d="M305,194.5c1.935,0,1.935-3,0-3S303.065,194.5,305,194.5L305,194.5z"/>
		</g>
	</g>
	<g>
		<path fill="#314F02" d="M360,217c3,1,7,1,10,1"/>
		<g>
			<path fill="#314F02" d="M359.602,218.446c3.358,1.031,6.916,1.052,10.398,1.054c1.935,0.001,1.935-2.999,0-3
				c-3.225-0.001-6.49,0.008-9.602-0.946C358.544,214.984,357.758,217.881,359.602,218.446L359.602,218.446z"/>
		</g>
	</g>
	<g>
		<path fill="#314F02" d="M317,217c-1,1-1,1-1,1"/>
		<g>
			<path fill="#314F02" d="M315.939,215.939c-0.333,0.333-0.667,0.667-1,1c-0.578,0.578-0.578,1.543,0,2.121
				c0.578,0.578,1.543,0.578,2.121,0c0.333-0.333,0.667-0.667,1-1c0.578-0.578,0.578-1.543,0-2.121
				C317.482,215.361,316.518,215.361,315.939,215.939L315.939,215.939z"/>
		</g>
	</g>
	<g>
		<path fill="#314F02" d="M223,192c-2,1-4,2-6,3"/>
		<g>
			<path fill="#314F02" d="M222.243,190.705c-2,1-4,2-6,3c-1.731,0.866-0.211,3.453,1.514,2.591c2-1,4-2,6-3
				C225.488,192.43,223.968,189.842,222.243,190.705L222.243,190.705z"/>
		</g>
	</g>
	<g>
		<path fill="#314F02" d="M190,212c-2,1-4,3-5,4"/>
		<g>
			<path fill="#314F02" d="M189.243,210.705c-2.015,1.052-3.708,2.64-5.304,4.235c-1.37,1.369,0.751,3.49,2.121,2.121
				c1.426-1.425,2.895-2.824,4.696-3.765C192.473,212.399,190.956,209.811,189.243,210.705L189.243,210.705z"/>
		</g>
	</g>
	<g>
		<path fill="#314F02" d="M152,236c-1,0-2,1-2,1"/>
		<g>
			<path fill="#314F02" d="M152,234.5c-1.163,0.051-2.239,0.631-3.061,1.439c-0.583,0.573-0.575,1.547,0,2.121
				c0.581,0.582,1.539,0.573,2.121,0c0.03-0.03,0.062-0.059,0.093-0.087c0.036-0.033,0.073-0.064,0.11-0.096
				c0.246-0.21-0.292,0.21,0.02-0.015c0.174-0.126,0.36-0.231,0.552-0.329c-0.149,0.059-0.142,0.058,0.024-0.001
				c0.388-0.132-0.265-0.016,0.141-0.034c0.816-0.036,1.5-0.655,1.5-1.5C153.5,235.209,152.817,234.464,152,234.5L152,234.5z"/>
		</g>
	</g>
	<g>
		<path fill="#314F02" d="M137,264c-1,1-2,3-3,4"/>
		<g>
			<path fill="#314F02" d="M135.939,262.939c-1.16,1.213-1.846,2.792-3,4c-1.336,1.397,0.782,3.521,2.121,2.121
				c1.16-1.213,1.846-2.792,3-4C139.397,263.663,137.278,261.539,135.939,262.939L135.939,262.939z"/>
		</g>
	</g>
	<g>
		<path fill="#314F02" d="M112,281"/>
		<g>
			<path fill="#314F02" d="M112,282.5c1.935,0,1.935-3,0-3S110.065,282.5,112,282.5L112,282.5z"/>
		</g>
	</g>
	<g>
		<path fill="#314F02" d="M109,287c1,3,1,7,1,11"/>
		<g>
			<path fill="#314F02" d="M107.554,287.398c1.044,3.424,0.945,7.058,0.946,10.602c0,1.935,3,1.935,3,0
				c-0.001-3.805,0.067-7.723-1.054-11.398C109.884,284.756,106.988,285.543,107.554,287.398L107.554,287.398z"/>
		</g>
	</g>
	<g>
		<path fill="#314F02" d="M72,333c0,1,0,1,0,1"/>
		<g>
			<path fill="#314F02" d="M70.5,333c0,0.333,0,0.667,0,1c0,1.935,3,1.935,3,0c0-0.333,0-0.667,0-1
				C73.5,331.065,70.5,331.065,70.5,333L70.5,333z"/>
		</g>
	</g>
	<g>
		<path fill="#314F02" d="M55,346c-2,0-4,0-6,1"/>
		<g>
			<path fill="#314F02" d="M55,344.5c-2.373,0.002-4.58,0.192-6.757,1.205c-1.753,0.815-0.229,3.4,1.514,2.59
				c1.662-0.772,3.447-0.793,5.243-0.795C56.935,347.498,56.935,344.498,55,344.5L55,344.5z"/>
		</g>
	</g>
	<g>
		<path fill="#314F02" d="M114,326c2,0,4,0,6,0"/>
		<g>
			<path fill="#314F02" d="M114,327.5c2,0,4,0,6,0c1.935,0,1.935-3,0-3c-2,0-4,0-6,0C112.065,324.5,112.065,327.5,114,327.5
				L114,327.5z"/>
		</g>
	</g>
	<g>
		<path fill="#314F02" d="M141,293c3-1,5-2,7-3"/>
		<g>
			<path fill="#314F02" d="M141.399,294.446c2.539-0.862,4.962-1.954,7.358-3.151c1.731-0.864,0.211-3.452-1.514-2.59
				c-2.167,1.082-4.346,2.068-6.642,2.849C138.78,292.173,139.562,295.07,141.399,294.446L141.399,294.446z"/>
		</g>
	</g>
	<g>
		<path fill="#314F02" d="M162,286c1,0,1,1,1,1"/>
		<g>
			<path fill="#314F02" d="M162,287.5c-0.186-0.04-0.2-0.041-0.043-0.003c-0.13-0.033-0.242-0.099-0.334-0.197
				c0.108,0.116,0.082,0.079-0.08-0.11c0.074,0.14,0.055,0.088-0.057-0.156c0.051,0.134,0.086,0.479,0.009-0.12
				c0.003,0.028,0.005,0.058,0.006,0.087c0.013,0.817,0.673,1.5,1.5,1.5c0.808,0,1.513-0.683,1.5-1.5
				c-0.022-1.426-1.103-2.436-2.5-2.5c-0.817-0.038-1.5,0.711-1.5,1.5C160.5,286.846,161.184,287.462,162,287.5L162,287.5z"/>
		</g>
	</g>
	<g>
		<path fill="#314F02" d="M169,273c0-4,1-7,4-10"/>
		<g>
			<path fill="#314F02" d="M170.5,273c0.048-3.544,1.083-6.372,3.561-8.939c1.343-1.392-0.776-3.516-2.121-2.121
				c-3.022,3.132-4.381,6.729-4.439,11.061C167.474,274.936,170.474,274.933,170.5,273L170.5,273z"/>
		</g>
	</g>
	<g>
		<path fill="#314F02" d="M194,247c2,0,3,0,4,0"/>
		<g>
			<path fill="#314F02" d="M194,248.5c1.333,0,2.667,0,4,0c1.935,0,1.935-3,0-3c-1.333,0-2.667,0-4,0
				C192.065,245.5,192.065,248.5,194,248.5L194,248.5z"/>
		</g>
	</g>
	<g>
		<path fill="#314F02" d="M261,255c1,0,2,0,4,0"/>
		<g>
			<path fill="#314F02" d="M261,256.5c1.333,0,2.667,0,4,0c1.935,0,1.935-3,0-3c-1.333,0-2.667,0-4,0
				C259.065,253.5,259.065,256.5,261,256.5L261,256.5z"/>
		</g>
	</g>
	<g>
		<path fill="#314F02" d="M339,242c1,1,2,1,2,1"/>
		<g>
			<path fill="#314F02" d="M337.939,243.061c0.816,0.781,1.898,1.421,3.061,1.439c0.817,0.013,1.5-0.692,1.5-1.5
				c0-0.827-0.683-1.487-1.5-1.5c-0.031,0-0.062-0.003-0.093-0.006c0.601,0.052,0.125,0.01-0.034-0.035
				c-0.069-0.02-0.138-0.043-0.204-0.068c0.344,0.122-0.062-0.042-0.114-0.071c-0.259-0.142-0.266-0.162-0.494-0.381
				c-0.591-0.565-1.533-0.588-2.121,0C337.371,241.507,337.349,242.496,337.939,243.061L337.939,243.061z"/>
		</g>
	</g>
	<g>
		<path fill="#314F02" d="M318,234c1,0,1-1,1-1"/>
		<g>
			<path fill="#314F02" d="M318,235.5c1.397-0.064,2.478-1.074,2.5-2.5c0.013-0.818-0.692-1.5-1.5-1.5c-0.827,0-1.487,0.683-1.5,1.5
				c-0.004,0.268,0.121-0.465-0.015-0.034c0.112-0.244,0.131-0.295,0.058-0.155c0.161-0.19,0.188-0.227,0.079-0.111
				c0.093-0.099,0.204-0.165,0.335-0.197c-0.157,0.038-0.143,0.037,0.043-0.003c-0.816,0.038-1.5,0.654-1.5,1.5
				C316.5,234.789,317.183,235.538,318,235.5L318,235.5z"/>
		</g>
	</g>
	<g>
		<path fill="#314F02" d="M332,216c2,0,5,0,8-1"/>
		<g>
			<path fill="#314F02" d="M332,217.5c2.851-0.002,5.662-0.2,8.398-1.054c1.841-0.574,1.055-3.47-0.797-2.893
				c-2.495,0.778-5.005,0.944-7.602,0.946C330.065,214.501,330.065,217.501,332,217.5L332,217.5z"/>
		</g>
	</g>
	<g>
		<path fill="#314F02" d="M235,186c-1,0-1,0-2,0"/>
		<g>
			<path fill="#314F02" d="M235,184.5c-0.667,0-1.333,0-2,0c-1.935,0-1.935,3,0,3c0.667,0,1.333,0,2,0
				C236.935,187.5,236.935,184.5,235,184.5L235,184.5z"/>
		</g>
	</g>
	<g>
		<path fill="#314F02" d="M202,166"/>
		<g>
			<path fill="#314F02" d="M202,167.5c1.935,0,1.935-3,0-3S200.065,167.5,202,167.5L202,167.5z"/>
		</g>
	</g>
	<g>
		<path fill="#314F02" d="M214,166c2,0,4,0,5,0"/>
		<g>
			<path fill="#314F02" d="M214,167.5c1.667,0,3.333,0,5,0c1.935,0,1.935-3,0-3c-1.667,0-3.333,0-5,0
				C212.065,164.5,212.065,167.5,214,167.5L214,167.5z"/>
		</g>
	</g>
	<g>
		<path fill="#314F02" d="M69.5,351.5"/>
		<g>
			<path fill="#314F02" d="M69.5,353c1.935,0,1.935-3,0-3S67.565,353,69.5,353L69.5,353z"/>
		</g>
	</g>
	<g>
		<path fill="#314F02" d="M76,348.5"/>
		<g>
			<path fill="#314F02" d="M76,350c1.935,0,1.935-3,0-3S74.065,350,76,350L76,350z"/>
		</g>
	</g>
	<g>
		<path fill="#314F02" d="M79,348c2.5,0.5,5,0.5,7,0.5"/>
		<g>
			<path fill="#314F02" d="M78.601,349.446c2.452,0.456,4.911,0.553,7.399,0.554c1.935,0.001,1.935-2.999,0-3
				c-2.214-0.001-4.418-0.04-6.601-0.446C77.508,346.202,76.701,349.093,78.601,349.446L78.601,349.446z"/>
		</g>
	</g>
	<g>
		<path fill="#314F02" d="M216.5,286.5c4.5-1.5,8.5-2.5,13-3"/>
		<g>
			<path fill="#314F02" d="M216.899,287.946c4.122-1.352,8.288-2.429,12.601-2.946c1.896-0.228,1.918-3.23,0-3
				c-4.59,0.551-9.008,1.614-13.399,3.054C214.271,285.653,215.055,288.551,216.899,287.946L216.899,287.946z"/>
		</g>
	</g>
	<g>
		<path fill="#314F02" d="M273,268c2,0.5,4,0.5,6,0.5"/>
		<g>
			<path fill="#314F02" d="M272.602,269.446c2.108,0.488,4.243,0.553,6.398,0.554c1.935,0.001,1.935-2.999,0-3
				c-1.888-0.001-3.754-0.02-5.602-0.446C271.516,266.118,270.717,269.011,272.602,269.446L272.602,269.446z"/>
		</g>
	</g>
	<g>
		<path fill="#314F02" d="M306,257c0,0,1.5,0,2,0"/>
		<g>
			<path fill="#314F02" d="M306.5,258.5c0.5,0,1,0,1.5,0c1.935,0,1.935-3,0-3c-0.5,0-1,0-1.5,0
				C304.565,255.5,304.565,258.5,306.5,258.5L306.5,258.5z"/>
		</g>
	</g>
	<g>
		<path fill="#314F02" d="M366,229c0,0,5.5,0,8,0"/>
		<g>
			<path fill="#314F02" d="M366.5,230.5c2.5,0,5,0,7.5,0c1.935,0,1.935-3,0-3c-2.5,0-5,0-7.5,0
				C364.565,227.5,364.565,230.5,366.5,230.5L366.5,230.5z"/>
		</g>
	</g>
	<g>
		<path fill="#314F02" d="M389.5,217c4.5,0.5,9,0.5,13.5,0.5"/>
		<g>
			<path fill="#314F02" d="M389.5,218.5c4.49,0.461,8.99,0.499,13.5,0.5c1.935,0,1.935-3,0-3c-4.51-0.001-9.01-0.039-13.5-0.5
				C387.576,215.302,387.595,218.304,389.5,218.5L389.5,218.5z"/>
		</g>
	</g>
	<g>
		<path fill="#314F02" d="M284.5,219.5c-2.5,3-5,5-8,7"/>
		<g>
			<path fill="#314F02" d="M283.439,218.439c-2.245,2.649-4.82,4.831-7.696,6.765c-1.597,1.073-0.097,3.673,1.514,2.591
				c3.082-2.073,5.896-4.394,8.304-7.235C286.803,219.094,284.691,216.961,283.439,218.439L283.439,218.439z"/>
		</g>
	</g>
	<g>
		<path fill="#314F02" d="M180,280c4,0,7.5,0,11,0"/>
		<g>
			<path fill="#314F02" d="M180,281.5c3.667,0,7.333,0,11,0c1.935,0,1.935-3,0-3c-3.667,0-7.333,0-11,0
				C178.065,278.5,178.065,281.5,180,281.5L180,281.5z"/>
		</g>
	</g>
</g>
</svg>
